<?xml version="1.0" encoding="iso-8859-1"?>
<!-- Generator: Adobe Illustrator 19.0.0, SVG Export Plug-In . SVG Version: 6.00 Build 0)  -->
<svg version="1.1" id="Layer_1" xmlns="http://www.w3.org/2000/svg" xmlns:xlink="http://www.w3.org/1999/xlink" x="0px" y="0px"
	 viewBox="0 0 511.996 511.996" style="enable-background:new 0 0 511.996 511.996;" xml:space="preserve">
<path style="fill:#CEE8FA;" d="M229.037,497.741l-0.422-13.576c-0.74-23.852-5.3-36.476-10.128-49.838
	c-5.393-14.948-10.969-30.404-10.969-60.849s5.575-45.898,10.968-60.843c5.263-14.567,10.235-28.331,10.235-56.641
	c0-28.307-4.971-42.068-10.231-56.637c-5.394-14.941-10.972-30.392-10.972-60.844c0-30.444,5.575-45.897,10.968-60.842
	c4.829-13.371,9.39-25.997,10.13-49.838l0.422-13.575h75.444l-0.472,14.382c-0.838,25.508-5.929,39.603-10.851,53.236
	c-5.262,14.571-10.232,28.333-10.232,56.637c0,28.311,4.971,42.068,10.232,56.632c5.393,14.943,10.971,30.399,10.971,60.847
	c0,30.447-5.575,45.901-10.968,60.845c-5.263,14.567-10.235,28.331-10.235,56.638c0,28.307,4.971,42.068,10.231,56.637
	c4.924,13.634,10.014,27.738,10.853,53.244l0.472,14.382h-75.444V497.741z"/>
<path style="fill:#2D527C;" d="M381.631,425.273c-2.675-7.406-10.85-11.247-18.254-8.568c-7.408,2.674-11.243,10.845-8.57,18.254
	c4.733,13.107,9.204,25.489,10.003,48.523h-46.53l-0.02-0.592c-0.914-27.762-6.64-43.624-11.694-57.618
	c-5.035-13.942-9.384-25.984-9.384-51.794c0-25.813,4.349-37.852,9.388-51.797c5.538-15.348,11.815-32.743,11.815-65.685
	c0-32.944-6.278-50.34-11.819-65.691c-5.035-13.937-9.384-25.974-9.384-51.789c0-25.809,4.349-37.849,9.388-51.803
	c5.051-13.989,10.777-29.845,11.688-57.601l0.021-0.595h46.53c-0.797,23.031-5.269,35.412-10.004,48.523
	c-5.445,15.082-11.078,30.677-11.078,61.472c0,30.805,5.632,46.396,11.079,61.475c5.206,14.426,10.124,28.052,10.124,56.005
	c0,27.956-4.917,41.581-10.12,55.999c-5.45,15.083-11.083,30.68-11.083,61.483c0,7.874,6.384,14.259,14.259,14.259
	c7.875,0,14.259-6.385,14.259-14.259c0-25.812,4.35-37.852,9.388-51.797c5.538-15.348,11.815-32.741,11.815-65.685
	s-6.278-50.34-11.822-65.697c-5.033-13.935-9.382-25.971-9.382-51.783c0-25.804,4.348-37.845,9.385-51.794
	c5.052-13.992,10.778-29.848,11.692-57.609l0.472-14.383c0.127-3.861-1.319-7.609-4.005-10.383S383.407,0,379.545,0H304.48H304.1
	h-74.684h-0.379h-75.065c-7.703,0-14.014,6.117-14.252,13.816l-0.421,13.576c-0.67,21.572-4.664,32.63-9.29,45.439
	c-5.538,15.348-11.815,32.741-11.815,65.681c0,26.563,4.067,42.636,8.045,54.856c2.437,7.489,10.483,11.583,17.972,9.144
	c7.487-2.438,11.583-10.485,9.144-17.972c-3.451-10.6-6.645-23.512-6.645-46.027c0-27.953,4.916-41.576,10.121-55.999
	c4.979-13.787,10.128-28.04,10.962-53.996h46.521c-0.774,20.82-4.7,31.735-9.243,44.314c-5.538,15.348-11.815,32.741-11.815,65.681
	c0,32.948,6.278,50.341,11.819,65.685c5.035,13.942,9.384,25.984,9.384,51.794c0,25.817-4.35,37.856-9.388,51.801
	c-5.538,15.348-11.815,32.741-11.815,65.681c0,32.94,6.277,50.339,11.818,65.694c4.541,12.569,8.466,23.479,9.24,44.31h-46.521
	c-0.834-25.967-5.982-40.215-10.959-53.994c-5.206-14.43-10.124-28.06-10.124-56.009c0-27.953,4.916-41.576,10.12-55.996
	c5.45-15.082,11.083-30.678,11.083-61.486c0-7.874-6.384-14.259-14.259-14.259s-14.259,6.385-14.259,14.259
	c0,25.814-4.35,37.856-9.388,51.801c-5.538,15.348-11.815,32.741-11.815,65.681c0,32.938,6.277,50.337,11.819,65.697
	c4.623,12.797,8.615,23.85,9.285,45.432l0.421,13.576c0.238,7.698,6.549,13.815,14.252,13.815h75.065h0.379h74.684h0.379
	c0.01,0,0.019,0,0.029,0h75.036c3.863,0,7.56-1.568,10.247-4.343s4.131-6.522,4.005-10.383l-0.472-14.383
	C392.41,455.129,386.684,439.266,381.631,425.273z M243.196,482.89c-0.914-27.762-6.64-43.624-11.695-57.623
	c-5.035-13.941-9.382-25.983-9.382-51.789c0-25.81,4.349-37.849,9.388-51.797c5.538-15.348,11.815-32.741,11.815-65.685
	s-6.278-50.341-11.821-65.697c-5.035-13.935-9.382-25.971-9.382-51.783c0-25.804,4.348-37.845,9.388-51.803
	c5.051-13.989,10.777-29.845,11.688-57.601l0.02-0.595h46.165c-0.773,20.817-4.698,31.731-9.243,44.314
	c-5.538,15.348-11.815,32.741-11.815,65.681c0,32.948,6.278,50.341,11.821,65.691c5.035,13.941,9.382,25.983,9.382,51.789
	c0,25.814-4.35,37.855-9.388,51.801c-5.538,15.348-11.815,32.741-11.815,65.681s6.277,50.339,11.819,65.7
	c4.54,12.568,8.464,23.477,9.237,44.304h-46.163L243.196,482.89z"/>
<g>
</g>
<g>
</g>
<g>
</g>
<g>
</g>
<g>
</g>
<g>
</g>
<g>
</g>
<g>
</g>
<g>
</g>
<g>
</g>
<g>
</g>
<g>
</g>
<g>
</g>
<g>
</g>
<g>
</g>
</svg>
